<svg xmlns="http://www.w3.org/2000/svg" xmlns:xlink="http://www.w3.org/1999/xlink" width="500" zoomAndPan="magnify" viewBox="0 0 375 374.999991" height="500" preserveAspectRatio="xMidYMid meet" version="1.0"><defs><clipPath id="eec58b5132"><path d="M 0 216 L 309 216 L 309 358.460938 L 0 358.460938 Z M 0 216 " clip-rule="nonzero"/></clipPath><clipPath id="d9e18d599c"><path d="M 52 16.460938 L 251 16.460938 L 251 216 L 52 216 Z M 52 16.460938 " clip-rule="nonzero"/></clipPath></defs><g clip-path="url(#eec58b5132)"><path fill="#607d8b" d="M 203.882812 216.390625 C 187.933594 224.703125 170.113281 229.121094 151.617188 229.121094 C 133.121094 229.121094 115.300781 224.703125 99.351562 216.390625 C 40.261719 237.335938 -2.683594 292.773438 -5.085938 358.394531 L 308.273438 358.394531 C 305.871094 292.773438 262.972656 237.335938 203.882812 216.390625 Z M 203.882812 216.390625 " fill-opacity="1" fill-rule="nonzero"/></g><g clip-path="url(#d9e18d599c)"><path fill="#607d8b" d="M 100.792969 201.257812 C 103.625 202.941406 106.605469 204.527344 109.632812 205.96875 C 113.332031 207.695312 117.125 209.1875 121.015625 210.484375 C 130.671875 213.605469 140.90625 215.289062 151.570312 215.289062 C 162.234375 215.289062 172.515625 213.605469 182.121094 210.484375 C 186.015625 209.234375 189.855469 207.695312 193.507812 205.96875 C 196.535156 204.527344 199.464844 202.988281 202.347656 201.257812 C 231.410156 183.917969 250.867188 152.164062 250.867188 115.941406 C 250.914062 61.175781 206.382812 16.597656 151.617188 16.597656 C 96.851562 16.597656 52.273438 61.175781 52.273438 115.941406 C 52.273438 152.164062 71.777344 183.917969 100.792969 201.257812 Z M 100.792969 201.257812 " fill-opacity="1" fill-rule="nonzero"/></g><path fill="#607d8b" d="M 339.355469 205.773438 L 339.355469 170.128906 L 313.03125 170.128906 L 313.03125 205.773438 L 277.382812 205.773438 L 277.382812 232.101562 L 313.03125 232.101562 L 313.03125 267.746094 L 339.355469 267.746094 L 339.355469 232.101562 L 375 232.101562 L 375 205.773438 Z M 339.355469 205.773438 " fill-opacity="1" fill-rule="nonzero"/></svg>