<svg xmlns="http://www.w3.org/2000/svg" xmlns:xlink="http://www.w3.org/1999/xlink" width="500" zoomAndPan="magnify" viewBox="0 0 375 374.999991" height="500" preserveAspectRatio="xMidYMid meet" version="1.0"><defs><clipPath id="e771f16503"><path d="M 0 216 L 310 216 L 310 356.25 L 0 356.25 Z M 0 216 " clip-rule="nonzero"/></clipPath><clipPath id="3eda6b135d"><path d="M 56 18.75 L 253 18.75 L 253 215 L 56 215 Z M 56 18.75 " clip-rule="nonzero"/></clipPath></defs><g clip-path="url(#e771f16503)"><path fill="#ffc107" d="M 206.175781 216.007812 C 190.4375 224.207031 172.855469 228.570312 154.605469 228.570312 C 136.359375 228.570312 118.773438 224.207031 103.039062 216.007812 C 44.742188 236.671875 2.371094 291.367188 0 356.113281 L 309.167969 356.113281 C 306.796875 291.367188 264.472656 236.671875 206.175781 216.007812 Z M 206.175781 216.007812 " fill-opacity="1" fill-rule="nonzero"/></g><g clip-path="url(#3eda6b135d)"><path fill="#ffc107" d="M 104.460938 201.078125 C 107.257812 202.738281 110.195312 204.300781 113.183594 205.722656 C 116.832031 207.429688 120.578125 208.898438 124.414062 210.179688 C 133.941406 213.261719 144.039062 214.917969 154.558594 214.917969 C 165.082031 214.917969 175.222656 213.261719 184.703125 210.179688 C 188.542969 208.945312 192.335938 207.429688 195.9375 205.722656 C 198.921875 204.300781 201.8125 202.785156 204.65625 201.078125 C 233.332031 183.96875 252.527344 152.640625 252.527344 116.902344 C 252.574219 62.871094 208.640625 18.886719 154.605469 18.886719 C 100.574219 18.886719 56.589844 62.871094 56.589844 116.902344 C 56.589844 152.640625 75.835938 183.96875 104.460938 201.078125 Z M 104.460938 201.078125 " fill-opacity="1" fill-rule="nonzero"/></g><path fill="#ffc107" d="M 339.832031 205.535156 L 339.832031 170.367188 L 313.859375 170.367188 L 313.859375 205.535156 L 278.691406 205.535156 L 278.691406 231.507812 L 313.859375 231.507812 L 313.859375 266.675781 L 339.832031 266.675781 L 339.832031 231.507812 L 375 231.507812 L 375 205.535156 Z M 339.832031 205.535156 " fill-opacity="1" fill-rule="nonzero"/></svg>