<svg xmlns="http://www.w3.org/2000/svg" xmlns:xlink="http://www.w3.org/1999/xlink" width="500" zoomAndPan="magnify" viewBox="0 0 375 374.999991" height="500" preserveAspectRatio="xMidYMid meet" version="1.0"><path fill="#607d8b" d="M 233.226562 80.035156 C 233.226562 35.902344 197.324219 0 153.191406 0 C 109.058594 0 73.15625 35.902344 73.15625 80.035156 C 73.15625 124.167969 109.058594 160.070312 153.191406 160.070312 C 197.324219 160.070312 233.226562 124.167969 233.226562 80.035156 Z M 109.445312 80.035156 C 109.445312 55.914062 129.070312 36.289062 153.191406 36.289062 C 177.3125 36.289062 196.9375 55.914062 196.9375 80.035156 C 196.9375 104.15625 177.3125 123.777344 153.191406 123.777344 C 129.070312 123.777344 109.445312 104.15625 109.445312 80.035156 Z M 109.445312 80.035156 " fill-opacity="1" fill-rule="nonzero"/><path fill="#607d8b" d="M 153.191406 169.355469 C 76.488281 169.355469 14.078125 231.765625 14.078125 308.46875 L 14.078125 332.660156 C 14.078125 356.003906 33.074219 375 56.417969 375 L 249.964844 375 C 273.308594 375 292.304688 356.003906 292.304688 332.660156 L 292.304688 308.46875 C 292.304688 231.765625 229.894531 169.355469 153.191406 169.355469 Z M 256.015625 332.660156 C 256.015625 335.992188 253.296875 338.710938 249.964844 338.710938 L 56.417969 338.710938 C 53.085938 338.710938 50.367188 335.992188 50.367188 332.660156 L 50.367188 308.46875 C 50.367188 251.777344 96.5 205.644531 153.191406 205.644531 C 209.882812 205.644531 256.015625 251.777344 256.015625 308.46875 Z M 256.015625 332.660156 " fill-opacity="1" fill-rule="nonzero"/><path fill="#607d8b" d="M 339.109375 92.546875 L 294.160156 137.496094 L 277.65625 121.003906 C 270.566406 113.914062 259.085938 113.914062 251.996094 121.003906 C 244.910156 128.089844 244.910156 139.585938 251.996094 146.660156 L 281.328125 175.980469 C 284.875 179.527344 289.515625 181.296875 294.160156 181.296875 C 298.800781 181.296875 303.445312 179.527344 306.988281 175.980469 L 364.765625 118.203125 C 371.855469 111.117188 371.855469 99.632812 364.765625 92.546875 C 357.679688 85.457031 346.195312 85.457031 339.109375 92.546875 Z M 339.109375 92.546875 " fill-opacity="1" fill-rule="nonzero"/></svg>