<svg xmlns="http://www.w3.org/2000/svg" xmlns:xlink="http://www.w3.org/1999/xlink" width="500" zoomAndPan="magnify" viewBox="0 0 375 374.999991" height="500" preserveAspectRatio="xMidYMid meet" version="1.0"><defs><clipPath id="01636bedba"><path d="M 57.65625 70 L 317.15625 70 L 317.15625 375 L 57.65625 375 Z M 57.65625 70 " clip-rule="nonzero"/></clipPath></defs><g clip-path="url(#01636bedba)"><path fill="#ffc107" d="M 316.859375 280.726562 C 316.160156 277.769531 315.410156 274.816406 314.871094 271.804688 C 310.574219 248.648438 306.328125 225.433594 302.03125 202.277344 C 296.601562 172.886719 291.175781 143.546875 285.695312 114.15625 C 283.386719 101.796875 281.074219 89.386719 278.816406 77.027344 C 278.386719 74.609375 277.367188 72.511719 274.839844 71.601562 C 272.800781 70.847656 270.703125 70.308594 268.5 70.417969 L 100.855469 94.542969 C 99.996094 94.652344 99.082031 94.8125 98.222656 94.917969 L 96.289062 147.898438 L 85.703125 97.820312 C 85.007812 98.628906 84.308594 99.378906 83.609375 100.132812 C 75.765625 108.78125 67.867188 117.433594 59.964844 126.085938 C 58.410156 127.75 57.65625 129.628906 58.085938 131.941406 C 61.363281 149.457031 64.640625 167.027344 67.917969 184.542969 C 72.054688 206.84375 76.195312 229.140625 80.332031 251.441406 L 92.742188 318.605469 C 94.085938 325.589844 95.324219 332.628906 96.664062 339.667969 C 97.417969 343.753906 100.105469 345.632812 104.347656 345.203125 C 105.800781 345.097656 107.304688 344.933594 108.753906 344.71875 C 119.179688 343.269531 129.605469 341.765625 140.027344 340.261719 L 142.070312 339.992188 L 142.390625 341.871094 C 144.164062 351.4375 145.9375 360.949219 147.710938 370.511719 C 148.035156 372.285156 148.894531 373.734375 150.828125 374.21875 C 152.492188 374.648438 154.160156 373.898438 155.339844 372.175781 C 157.328125 369.328125 159.316406 366.429688 161.304688 363.527344 C 164.101562 359.550781 166.894531 355.574219 169.847656 351.328125 C 170.332031 351.8125 170.707031 352.1875 171.136719 352.511719 C 177.746094 357.453125 184.410156 362.398438 191.074219 367.339844 C 193.492188 369.167969 196.769531 368.203125 197.304688 365.40625 C 197.46875 364.601562 197.359375 363.742188 197.199219 362.882812 C 195.53125 353.855469 193.867188 344.828125 192.203125 335.800781 L 191.664062 332.84375 L 193.222656 332.628906 C 223.472656 328.277344 253.726562 323.925781 283.976562 319.519531 C 284.890625 319.414062 285.910156 318.875 286.5 318.175781 C 290.90625 313.394531 295.152344 308.503906 299.503906 303.667969 C 304.769531 297.8125 310.089844 292.007812 315.355469 286.207031 C 316.699219 284.703125 317.34375 282.875 316.859375 280.726562 Z M 188.492188 360.625 C 184.410156 357.617188 180.273438 354.605469 176.1875 351.542969 C 174.308594 350.148438 172.535156 348.535156 170.761719 347.03125 C 169.6875 346.117188 167.59375 346.386719 166.894531 347.566406 C 165.710938 349.609375 164.53125 351.707031 163.1875 353.640625 C 160.445312 357.667969 157.652344 361.59375 154.589844 365.945312 L 146.152344 320.433594 L 180.488281 315.488281 L 188.871094 360.464844 C 188.710938 360.515625 188.601562 360.570312 188.492188 360.625 Z M 292.628906 290.503906 C 266.726562 294.050781 240.882812 297.8125 215.089844 301.574219 C 214.769531 301.628906 214.445312 301.679688 214.125 301.734375 C 213.101562 301.789062 212.191406 302.164062 212.40625 303.292969 C 212.566406 304.476562 213.535156 304.691406 214.660156 304.527344 C 220.679688 303.667969 226.699219 302.808594 232.660156 301.949219 C 252.113281 299.15625 271.5625 296.359375 291.015625 293.566406 C 291.390625 293.511719 291.765625 293.460938 292.574219 293.40625 C 290.476562 295.664062 288.703125 297.652344 286.824219 299.640625 C 286.449219 300.015625 285.75 300.015625 285.160156 300.121094 C 277.742188 301.195312 270.328125 302.273438 262.914062 303.347656 C 262.484375 303.453125 261.945312 303.347656 261.625 303.5625 C 261.085938 304.046875 260.710938 304.636719 260.28125 305.226562 C 260.925781 305.601562 261.570312 306.300781 262.160156 306.300781 C 263.664062 306.25 265.167969 305.925781 266.675781 305.765625 C 271.726562 305.011719 276.777344 304.3125 281.828125 303.5625 C 282.203125 303.507812 282.523438 303.507812 283.4375 303.398438 C 281.71875 305.335938 280.269531 306.945312 278.765625 308.503906 C 278.550781 308.71875 277.957031 308.773438 277.527344 308.828125 C 248.621094 313.019531 219.765625 317.15625 190.859375 321.292969 C 190.480469 321.347656 190.105469 321.347656 189.570312 321.402344 C 189.460938 320.917969 189.355469 320.539062 189.191406 320.058594 C 189.621094 319.949219 189.890625 319.84375 190.214844 319.789062 C 197.359375 318.769531 204.507812 317.746094 211.652344 316.671875 C 211.976562 316.617188 212.296875 316.566406 212.621094 316.566406 C 213.75 316.402344 214.714844 315.972656 214.5 314.683594 C 214.285156 313.5 213.15625 313.394531 212.136719 313.554688 C 204.988281 314.578125 197.84375 315.597656 190.695312 316.566406 L 188.761719 316.832031 C 188.492188 315.917969 188.226562 315.167969 187.957031 314.308594 L 245.558594 306.03125 C 246.09375 305.980469 246.792969 306.03125 247.117188 305.710938 C 247.546875 305.335938 247.976562 304.636719 247.867188 304.097656 C 247.8125 303.722656 247.0625 303.238281 246.523438 303.078125 C 246.042969 302.917969 245.449219 303.183594 244.914062 303.238281 C 211.007812 308.128906 176.996094 313.019531 143.035156 317.855469 C 140.1875 318.285156 138.523438 320.488281 138.953125 323.28125 C 139.222656 324.945312 139.542969 326.558594 139.921875 328.386719 L 114.234375 332.09375 C 115.847656 330.535156 116.4375 328.601562 118.855469 328.332031 C 122.402344 327.902344 125.949219 327.3125 129.496094 326.828125 C 130.570312 326.667969 131.753906 326.398438 131.484375 325.109375 C 131.269531 323.710938 130.085938 323.710938 128.90625 323.925781 C 126.324219 324.300781 123.746094 324.679688 120.898438 324.730469 C 122.617188 322.851562 124.445312 321.078125 126.003906 319.035156 C 127.9375 316.511719 130.355469 315.382812 133.632812 314.953125 C 150.34375 312.75 166.949219 310.222656 183.605469 307.859375 C 184.089844 307.804688 184.679688 307.859375 185 307.644531 C 185.539062 307.214844 185.859375 306.570312 186.34375 305.980469 C 185.699219 305.601562 185.054688 304.90625 184.464844 304.957031 C 181.832031 305.171875 179.199219 305.65625 176.566406 306.03125 C 162.488281 308.074219 148.410156 310.0625 134.332031 312.105469 L 132.289062 312.375 C 133.742188 310.492188 134.871094 309.203125 137.234375 308.882812 C 185.914062 301.949219 234.597656 294.964844 283.277344 287.980469 L 297.300781 285.992188 C 297.839844 285.882812 298.375 285.882812 299.183594 285.828125 C 297.195312 288.085938 295.796875 290.019531 292.628906 290.503906 Z M 292.628906 290.503906 " fill-opacity="1" fill-rule="nonzero"/></g><path fill="#ffc107" d="M 204.558594 74.929688 C 200.152344 75.628906 195.640625 76.328125 191.019531 77.082031 C 191.074219 76.757812 191.074219 76.4375 191.074219 76.113281 C 191.234375 65.636719 191.503906 55.210938 191.824219 44.734375 C 191.933594 40.703125 191.609375 36.726562 190.964844 32.75 C 189.140625 21.414062 181.9375 14.859375 169.847656 14.375 C 154.695312 13.730469 140.1875 16.953125 127.132812 24.207031 C 117.515625 29.582031 113.914062 38.554688 113.429688 48.496094 C 112.730469 62.035156 112.570312 75.574219 112.140625 89.117188 C 112.140625 89.222656 112.140625 89.332031 112.140625 89.4375 C 107.25 90.191406 102.628906 90.941406 98.386719 91.589844 C 98.546875 84.550781 98.761719 77.511719 98.921875 70.472656 C 99.191406 60.636719 99.136719 50.75 100.640625 40.972656 C 102.792969 26.949219 109.5625 15.878906 123.691406 9.699219 C 138.414062 3.253906 154.214844 0.351562 170.332031 0.511719 C 188.925781 0.726562 200.582031 10.183594 203.753906 26.949219 C 206.761719 42.851562 205.203125 58.917969 204.558594 74.929688 Z M 204.558594 74.929688 " fill-opacity="1" fill-rule="nonzero"/><path fill="#ffc107" d="M 248.511719 68 C 244.535156 68.644531 239.914062 69.34375 234.863281 70.148438 C 235.027344 64.828125 235.242188 59.511719 235.078125 54.246094 C 234.757812 42.851562 230.136719 38.984375 218.046875 39.683594 C 211.8125 40.058594 208 35.167969 209.988281 29.421875 C 210.46875 28.023438 211.4375 27.433594 212.886719 27.324219 C 219.335938 26.734375 225.730469 26.195312 232.125 27.699219 C 240.882812 29.851562 245.988281 35.492188 247.277344 45.054688 C 247.976562 50.214844 248.246094 55.480469 248.675781 60.421875 C 248.621094 62.089844 248.566406 63.484375 248.566406 64.828125 C 248.621094 66.066406 248.566406 67.085938 248.511719 68 Z M 248.511719 68 " fill-opacity="1" fill-rule="nonzero"/><path fill="#ffc107" d="M 182.746094 46.453125 C 169.582031 50.699219 165.980469 60.101562 166.035156 71.816406 C 166.035156 74.878906 165.871094 77.941406 165.710938 81.003906 C 161.199219 81.703125 156.632812 82.398438 152.171875 83.152344 C 152.171875 82.292969 152.171875 81.324219 152.171875 80.25 C 152.226562 78.261719 152.277344 76.273438 152.332031 74.285156 C 152.171875 67.945312 153.085938 61.765625 154.804688 55.640625 C 158.027344 44.304688 168.882812 35.222656 181.347656 33.503906 C 182.367188 33.34375 183.28125 33.234375 184.140625 33.878906 C 187.152344 36.191406 186.398438 45.269531 182.746094 46.453125 Z M 182.746094 46.453125 " fill-opacity="1" fill-rule="nonzero"/></svg>